<svg xmlns="http://www.w3.org/2000/svg" viewBox="0 0 1300 500" style="background: #000">
  <!-- Main pig body outline -->
  <path d="M 150 180 Q 140 170 135 150 Q 130 130 140 115 L 160 100 L 200 95 L 280 95 L 1100 100 Q 1140 105 1165 125 Q 1180 140 1185 165 Q 1185 190 1175 210 L 1165 230 L 1150 250 L 280 265 L 200 260 L 165 245 Q 145 225 140 205 Q 135 190 150 180 Z"
        fill="none"
        stroke="#fff"
        stroke-width="3"
        stroke-linejoin="round"/>

  <!-- Front legs -->
  <line x1="280" y1="265" x2="280" y2="370" stroke="#fff" stroke-width="3"/>
  <line x1="350" y1="265" x2="350" y2="380" stroke="#fff" stroke-width="3"/>

  <!-- Back legs -->
  <line x1="1000" y1="250" x2="1000" y2="370" stroke="#fff" stroke-width="3"/>
  <line x1="1080" y1="250" x2="1080" y2="365" stroke="#fff" stroke-width="3"/>

  <!-- Ear -->
  <ellipse cx="125" cy="130" rx="15" ry="30" fill="none" stroke="#fff" stroke-width="2.5" transform="rotate(-25 125 130)"/>

  <!-- Eye -->
  <circle cx="155" cy="130" r="5" fill="#fff"/>

  <!-- Snout detail -->
  <line x1="130" y1="160" x2="145" y2="165" stroke="#fff" stroke-width="2"/>
  <line x1="130" y1="170" x2="145" y2="168" stroke="#fff" stroke-width="2"/>

  <!-- Tail -->
  <path d="M 1175 185 Q 1200 180 1215 195 Q 1220 205 1210 210"
        fill="none"
        stroke="#fff"
        stroke-width="3.5"
        stroke-linecap="round"/>

  <!-- Vertical dashed division lines -->
  <line x1="200" y1="95" x2="200" y2="265" stroke="#fff" stroke-width="2" stroke-dasharray="8,8"/>
  <line x1="280" y1="95" x2="280" y2="265" stroke="#fff" stroke-width="2" stroke-dasharray="8,8"/>
  <line x1="450" y1="98" x2="450" y2="262" stroke="#fff" stroke-width="2" stroke-dasharray="8,8"/>
  <line x1="620" y1="99" x2="620" y2="260" stroke="#fff" stroke-width="2" stroke-dasharray="8,8"/>
  <line x1="790" y1="99" x2="790" y2="258" stroke="#fff" stroke-width="2" stroke-dasharray="8,8"/>
  <line x1="960" y1="100" x2="960" y2="255" stroke="#fff" stroke-width="2" stroke-dasharray="8,8"/>
  <line x1="1100" y1="100" x2="1100" y2="250" stroke="#fff" stroke-width="2" stroke-dasharray="8,8"/>

  <!-- Horizontal dashed line -->
  <line x1="200" y1="180" x2="1100" y2="180" stroke="#fff" stroke-width="2" stroke-dasharray="8,8"/>

  <!-- Number circles -->
  <!-- 1 - Hode -->
  <circle cx="170" cy="125" r="28" fill="none" stroke="#fff" stroke-width="3"/>
  <text x="170" y="138" font-family="Arial, sans-serif" font-size="32" font-weight="bold" fill="#fff" text-anchor="middle">1</text>

  <!-- 2 - Kjake -->
  <circle cx="215" cy="225" r="28" fill="none" stroke="#fff" stroke-width="3"/>
  <text x="215" y="238" font-family="Arial, sans-serif" font-size="32" font-weight="bold" fill="#fff" text-anchor="middle">2</text>

  <!-- 3 - Nakke -->
  <circle cx="240" cy="135" r="28" fill="none" stroke="#fff" stroke-width="3"/>
  <text x="240" y="148" font-family="Arial, sans-serif" font-size="32" font-weight="bold" fill="#fff" text-anchor="middle">3</text>

  <!-- 4 - Indrefilet -->
  <circle cx="535" cy="145" r="28" fill="none" stroke="#fff" stroke-width="3"/>
  <text x="535" y="158" font-family="Arial, sans-serif" font-size="32" font-weight="bold" fill="#fff" text-anchor="middle">4</text>

  <!-- 5 - Kam -->
  <circle cx="705" cy="125" r="28" fill="none" stroke="#fff" stroke-width="3"/>
  <text x="705" y="138" font-family="Arial, sans-serif" font-size="32" font-weight="bold" fill="#fff" text-anchor="middle">5</text>

  <!-- 6 - Mørbrad -->
  <circle cx="875" cy="145" r="28" fill="none" stroke="#fff" stroke-width="3"/>
  <text x="875" y="158" font-family="Arial, sans-serif" font-size="32" font-weight="bold" fill="#fff" text-anchor="middle">6</text>

  <!-- 7 - Side/Bacon -->
  <circle cx="705" cy="225" r="28" fill="none" stroke="#fff" stroke-width="3"/>
  <text x="705" y="238" font-family="Arial, sans-serif" font-size="32" font-weight="bold" fill="#fff" text-anchor="middle">7</text>

  <!-- 8 - Bog -->
  <circle cx="1030" cy="140" r="28" fill="none" stroke="#fff" stroke-width="3"/>
  <text x="1030" y="153" font-family="Arial, sans-serif" font-size="32" font-weight="bold" fill="#fff" text-anchor="middle">8</text>

  <!-- 9 - Skinke -->
  <circle cx="1140" cy="160" r="28" fill="none" stroke="#fff" stroke-width="3"/>
  <text x="1140" y="173" font-family="Arial, sans-serif" font-size="32" font-weight="bold" fill="#fff" text-anchor="middle">9</text>

  <!-- 10 - Knoke -->
  <circle cx="1030" cy="225" r="28" fill="none" stroke="#fff" stroke-width="3"/>
  <text x="1030" y="238" font-family="Arial, sans-serif" font-size="32" font-weight="bold" fill="#fff" text-anchor="middle">10</text>

  <!-- 11 - Labb -->
  <circle cx="315" cy="340" r="28" fill="none" stroke="#fff" stroke-width="3"/>
  <text x="315" y="353" font-family="Arial, sans-serif" font-size="32" font-weight="bold" fill="#fff" text-anchor="middle">11</text>
</svg>
